<mxfile host="app.diagrams.net" modified="2022-06-07T01:43:42.735Z" agent="5.0 (Windows NT 6.1; Win64; x64) AppleWebKit/537.36 (KHTML, like Gecko) Chrome/102.0.5005.63 Safari/537.36" etag="pa00h2xLk_3Pl79W5FF2" version="19.0.0" type="github" pages="2">
  <diagram id="8Mcmq0ioaoLnQd22ZTMx" name="第 1 页">
    <mxGraphModel dx="868" dy="525" grid="1" gridSize="10" guides="1" tooltips="1" connect="1" arrows="1" fold="1" page="1" pageScale="1" pageWidth="300" pageHeight="900" math="0" shadow="0">
      <root>
        <mxCell id="0" />
        <mxCell id="1" parent="0" />
        <mxCell id="Qy1Y6E39n3u61H79zV9y-25" value="" style="rounded=1;whiteSpace=wrap;html=1;shadow=1;fontSize=11;strokeWidth=1;fillColor=none;dashed=1;arcSize=5;" parent="1" vertex="1">
          <mxGeometry x="80" y="160" width="390" height="80" as="geometry" />
        </mxCell>
        <mxCell id="xZrQEDNqEejDbcOTDLVU-12" value="" style="text;html=1;fillColor=none;align=center;verticalAlign=middle;whiteSpace=wrap;fontSize=54;fontStyle=1;shadow=1;rounded=1;glass=0;sketch=0;arcSize=1;dashed=1;strokeWidth=1;container=0;strokeColor=default;" parent="1" vertex="1">
          <mxGeometry x="10" y="320" width="570" height="220" as="geometry" />
        </mxCell>
        <mxCell id="Qy1Y6E39n3u61H79zV9y-2" value="" style="edgeStyle=orthogonalEdgeStyle;elbow=horizontal;endArrow=classic;html=1;rounded=0;jumpStyle=none;exitX=0.5;exitY=1;exitDx=0;exitDy=0;entryX=0.438;entryY=-0.004;entryDx=0;entryDy=0;entryPerimeter=0;" parent="1" source="Qy1Y6E39n3u61H79zV9y-25" target="xZrQEDNqEejDbcOTDLVU-12" edge="1">
          <mxGeometry width="50" height="50" relative="1" as="geometry">
            <mxPoint x="410" y="320" as="sourcePoint" />
            <mxPoint x="270" y="320" as="targetPoint" />
          </mxGeometry>
        </mxCell>
        <mxCell id="Qy1Y6E39n3u61H79zV9y-6" value="" style="group" parent="1" vertex="1" connectable="0">
          <mxGeometry x="250" y="380" width="106.66" height="123.74" as="geometry" />
        </mxCell>
        <mxCell id="xZrQEDNqEejDbcOTDLVU-16" value="" style="rounded=0;whiteSpace=wrap;html=1;shadow=0;glass=0;sketch=0;fillColor=#ffe6cc;strokeColor=#d79b00;dashed=1;" parent="Qy1Y6E39n3u61H79zV9y-6" vertex="1">
          <mxGeometry width="106.66" height="123.74" as="geometry" />
        </mxCell>
        <mxCell id="xZrQEDNqEejDbcOTDLVU-17" value="&lt;span style=&quot;font-size: 12px;&quot;&gt;&lt;b&gt;认证服务集群&lt;/b&gt;&lt;/span&gt;" style="text;html=1;strokeColor=none;fillColor=none;align=center;verticalAlign=middle;whiteSpace=wrap;rounded=0;shadow=1;fontSize=16;" parent="Qy1Y6E39n3u61H79zV9y-6" vertex="1">
          <mxGeometry x="13.830000000000013" y="1.2486848635235646" width="79" height="18.759305210918114" as="geometry" />
        </mxCell>
        <mxCell id="xZrQEDNqEejDbcOTDLVU-18" value="认证服务1" style="rounded=0;whiteSpace=wrap;html=1;shadow=0;fontSize=12;fillColor=#f9f7ed;strokeColor=#36393d;" parent="Qy1Y6E39n3u61H79zV9y-6" vertex="1">
          <mxGeometry x="6.3300000000000125" y="24.937990074441682" width="94" height="18.759305210918114" as="geometry" />
        </mxCell>
        <mxCell id="xZrQEDNqEejDbcOTDLVU-19" value="认证服务2" style="rounded=0;whiteSpace=wrap;html=1;shadow=0;fontSize=12;fillColor=#f9f7ed;strokeColor=default;" parent="Qy1Y6E39n3u61H79zV9y-6" vertex="1">
          <mxGeometry x="6.330000000000041" y="49.51915632754341" width="94" height="18.759305210918114" as="geometry" />
        </mxCell>
        <mxCell id="xZrQEDNqEejDbcOTDLVU-20" value="认证服务3" style="rounded=0;whiteSpace=wrap;html=1;shadow=0;fontSize=12;fillColor=#f9f7ed;strokeColor=#36393d;" parent="Qy1Y6E39n3u61H79zV9y-6" vertex="1">
          <mxGeometry x="6.330000000000041" y="73.65563275434242" width="94" height="18.759305210918114" as="geometry" />
        </mxCell>
        <mxCell id="WMYxRCIe_ST6EQH2v5ZK-2" value="&lt;b&gt;......&lt;/b&gt;" style="rounded=0;whiteSpace=wrap;html=1;shadow=0;fontSize=12;fillColor=#f9f7ed;strokeColor=#36393d;dashed=1;verticalAlign=bottom;align=center;" parent="Qy1Y6E39n3u61H79zV9y-6" vertex="1">
          <mxGeometry x="6.330000000000041" y="98.03563275434242" width="94" height="18.759305210918114" as="geometry" />
        </mxCell>
        <mxCell id="Qy1Y6E39n3u61H79zV9y-18" style="edgeStyle=orthogonalEdgeStyle;rounded=0;jumpStyle=none;orthogonalLoop=1;jettySize=auto;html=1;entryX=0.5;entryY=0;entryDx=0;entryDy=0;fontSize=14;strokeColor=#FF0000;" parent="1" source="Qy1Y6E39n3u61H79zV9y-15" target="Qy1Y6E39n3u61H79zV9y-25" edge="1">
          <mxGeometry relative="1" as="geometry" />
        </mxCell>
        <mxCell id="Qy1Y6E39n3u61H79zV9y-15" value="&lt;font style=&quot;&quot;&gt;&lt;span style=&quot;font-weight: bold; font-size: 14px;&quot;&gt;用户&lt;br&gt;&lt;/span&gt;&lt;font style=&quot;font-size: 11px;&quot;&gt;（资源拥有者）&lt;/font&gt;&lt;/font&gt;" style="rounded=0;whiteSpace=wrap;html=1;shadow=1;glass=0;sketch=0;fontSize=20;fillColor=#fad7ac;strokeColor=#b46504;opacity=80;" parent="1" vertex="1">
          <mxGeometry x="190" y="37.73" width="140" height="52.27" as="geometry" />
        </mxCell>
        <mxCell id="Qy1Y6E39n3u61H79zV9y-19" value="&lt;font style=&quot;font-size: 12px;&quot;&gt;1.访问使用&lt;/font&gt;" style="text;html=1;strokeColor=none;fillColor=none;align=center;verticalAlign=middle;whiteSpace=wrap;rounded=0;shadow=1;fontSize=14;" parent="1" vertex="1">
          <mxGeometry x="255" y="120" width="80" height="20" as="geometry" />
        </mxCell>
        <mxCell id="Qy1Y6E39n3u61H79zV9y-20" value="&lt;font style=&quot;font-size: 11px;&quot;&gt;2.请求访问权限&lt;/font&gt;" style="text;html=1;strokeColor=none;fillColor=none;align=center;verticalAlign=middle;whiteSpace=wrap;rounded=0;shadow=1;fontSize=14;" parent="1" vertex="1">
          <mxGeometry x="165" y="270" width="90" height="20" as="geometry" />
        </mxCell>
        <mxCell id="Qy1Y6E39n3u61H79zV9y-22" value="" style="edgeStyle=orthogonalEdgeStyle;elbow=horizontal;endArrow=classic;html=1;rounded=0;jumpStyle=none;exitX=0.911;exitY=0.001;exitDx=0;exitDy=0;exitPerimeter=0;entryX=1;entryY=0.617;entryDx=0;entryDy=0;entryPerimeter=0;" parent="1" source="xZrQEDNqEejDbcOTDLVU-12" target="Qy1Y6E39n3u61H79zV9y-15" edge="1">
          <mxGeometry width="50" height="50" relative="1" as="geometry">
            <mxPoint x="530" y="300" as="sourcePoint" />
            <mxPoint x="340" y="80" as="targetPoint" />
            <Array as="points">
              <mxPoint x="529" y="70" />
            </Array>
          </mxGeometry>
        </mxCell>
        <mxCell id="Qy1Y6E39n3u61H79zV9y-23" value="&lt;font style=&quot;font-size: 11px;&quot;&gt;3.询问是否允许访问&lt;/font&gt;" style="text;html=1;strokeColor=none;fillColor=none;align=center;verticalAlign=middle;whiteSpace=wrap;rounded=0;shadow=1;fontSize=14;" parent="1" vertex="1">
          <mxGeometry x="386.66" y="70" width="113.34" height="20" as="geometry" />
        </mxCell>
        <mxCell id="Qy1Y6E39n3u61H79zV9y-29" value="&lt;b style=&quot;color: rgb(51, 51, 51); font-size: 14px;&quot;&gt;工程数据中心&lt;/b&gt;" style="rounded=0;whiteSpace=wrap;html=1;shadow=1;fontSize=11;strokeColor=#23445d;strokeWidth=1;fillColor=#bac8d3;" parent="1" vertex="1">
          <mxGeometry x="140" y="177.5" width="100" height="45" as="geometry" />
        </mxCell>
        <mxCell id="Qy1Y6E39n3u61H79zV9y-32" value="&lt;b style=&quot;color: rgb(51, 51, 51); font-size: 14px;&quot;&gt;业务应用&lt;/b&gt;" style="rounded=0;whiteSpace=wrap;html=1;shadow=1;fontSize=11;strokeColor=#23445d;strokeWidth=1;fillColor=#bac8d3;" parent="1" vertex="1">
          <mxGeometry x="310" y="177.5" width="100" height="45" as="geometry" />
        </mxCell>
        <mxCell id="Qy1Y6E39n3u61H79zV9y-33" value="" style="edgeStyle=orthogonalEdgeStyle;elbow=horizontal;endArrow=classic;html=1;rounded=0;jumpStyle=none;exitX=1;exitY=0.25;exitDx=0;exitDy=0;" parent="1" source="Qy1Y6E39n3u61H79zV9y-15" edge="1">
          <mxGeometry width="50" height="50" relative="1" as="geometry">
            <mxPoint x="340" y="50" as="sourcePoint" />
            <mxPoint x="550" y="320" as="targetPoint" />
            <Array as="points">
              <mxPoint x="550" y="51" />
              <mxPoint x="550" y="320" />
            </Array>
          </mxGeometry>
        </mxCell>
        <mxCell id="Qy1Y6E39n3u61H79zV9y-36" value="&lt;font style=&quot;font-size: 11px;&quot;&gt;4.允许授权&lt;/font&gt;" style="text;html=1;strokeColor=none;fillColor=none;align=center;verticalAlign=middle;whiteSpace=wrap;rounded=0;shadow=1;fontSize=14;" parent="1" vertex="1">
          <mxGeometry x="386.33" y="30" width="113.34" height="20" as="geometry" />
        </mxCell>
        <mxCell id="Qy1Y6E39n3u61H79zV9y-37" value="" style="edgeStyle=orthogonalEdgeStyle;elbow=horizontal;endArrow=classic;html=1;rounded=0;jumpStyle=none;entryX=0.594;entryY=1.025;entryDx=0;entryDy=0;entryPerimeter=0;exitX=0.521;exitY=-0.005;exitDx=0;exitDy=0;exitPerimeter=0;" parent="1" source="xZrQEDNqEejDbcOTDLVU-12" target="Qy1Y6E39n3u61H79zV9y-25" edge="1">
          <mxGeometry width="50" height="50" relative="1" as="geometry">
            <mxPoint x="319" y="320" as="sourcePoint" />
            <mxPoint x="280" y="330" as="targetPoint" />
          </mxGeometry>
        </mxCell>
        <mxCell id="Qy1Y6E39n3u61H79zV9y-38" value="&lt;font style=&quot;font-size: 11px;&quot;&gt;5.获得授权令牌&lt;/font&gt;" style="text;html=1;strokeColor=none;fillColor=none;align=center;verticalAlign=middle;whiteSpace=wrap;rounded=0;shadow=1;fontSize=14;" parent="1" vertex="1">
          <mxGeometry x="310" y="270" width="90" height="20" as="geometry" />
        </mxCell>
        <mxCell id="Qy1Y6E39n3u61H79zV9y-50" value="&lt;b&gt;&lt;font color=&quot;#ea6b66&quot;&gt;统一认证中心&lt;/font&gt;&lt;/b&gt;" style="text;html=1;strokeColor=none;fillColor=none;align=center;verticalAlign=middle;whiteSpace=wrap;rounded=0;shadow=1;fontSize=11;" parent="1" vertex="1">
          <mxGeometry x="233.32999999999998" y="330" width="140" height="30" as="geometry" />
        </mxCell>
        <mxCell id="Qy1Y6E39n3u61H79zV9y-59" value="&lt;font style=&quot;font-size: 11px;&quot;&gt;6.数据同步&lt;/font&gt;" style="text;html=1;strokeColor=none;fillColor=none;align=center;verticalAlign=middle;whiteSpace=wrap;rounded=0;shadow=1;fontSize=14;" parent="1" vertex="1">
          <mxGeometry x="440" y="270" width="70" height="20" as="geometry" />
        </mxCell>
        <mxCell id="Qy1Y6E39n3u61H79zV9y-60" value="" style="endArrow=classic;startArrow=classic;html=1;rounded=0;dashed=1;fontSize=11;fontColor=#000000;strokeColor=#000000;jumpStyle=none;entryX=0.859;entryY=1.035;entryDx=0;entryDy=0;entryPerimeter=0;" parent="1" target="Qy1Y6E39n3u61H79zV9y-25" edge="1">
          <mxGeometry width="50" height="50" relative="1" as="geometry">
            <mxPoint x="440" y="320" as="sourcePoint" />
            <mxPoint x="310" y="290" as="targetPoint" />
          </mxGeometry>
        </mxCell>
      </root>
    </mxGraphModel>
  </diagram>
  <diagram id="HrFjFPu9NfcljseWr6zG" name="第 2 页">
    <mxGraphModel dx="868" dy="525" grid="1" gridSize="10" guides="1" tooltips="1" connect="1" arrows="1" fold="1" page="1" pageScale="1" pageWidth="300" pageHeight="900" math="0" shadow="0">
      <root>
        <mxCell id="0" />
        <mxCell id="1" parent="0" />
      </root>
    </mxGraphModel>
  </diagram>
</mxfile>
